<svg width="97" height="22" viewBox="0 0 97 22" fill="none" xmlns="http://www.w3.org/2000/svg">
<path d="M13.943 21.3569H17.964V5.63661H13.943V6.91989C10.1422 4.35332 4.96442 5.26232 2.32044 8.95176C-0.323549 12.6412 0.612862 17.6674 4.41359 20.234C7.27791 22.1589 11.0786 22.1589 13.943 20.234V21.3569ZM4.74409 13.5502C4.74409 11.0906 6.83724 9.0587 9.37106 9.0587C11.9049 9.0587 13.998 11.0906 13.998 13.5502C13.998 16.0098 11.9049 18.0417 9.37106 18.0417C6.83724 18.0417 4.74409 16.0633 4.74409 13.5502ZM32.7263 0.289581V6.91989C28.9255 4.35332 23.7477 5.31579 21.1037 8.95176C18.4598 12.5877 19.4513 17.6674 23.1969 20.234C26.0612 22.1589 29.8619 22.1589 32.7263 20.234V21.3569H36.7473V0.289581L32.7263 0.289581ZM23.5274 13.5502C23.5274 11.0906 25.6205 9.0587 28.1544 9.0587C30.6882 9.0587 32.7813 11.0906 32.7813 13.5502C32.7813 16.0098 30.6882 18.0417 28.1544 18.0417C25.6205 18.0417 23.5274 16.0633 23.5274 13.5502ZM42.7514 0.289581H38.7303V4.19291H42.7514V0.289581ZM42.7514 5.63661H38.7303V21.3569H42.7514V5.63661ZM57.5136 0.289581V6.91989C53.7129 4.35332 48.5351 5.26232 45.8911 8.95176C43.2471 12.6412 44.1835 17.6674 47.9843 20.234C50.8486 22.1589 54.6493 22.1589 57.5136 20.234V21.3569H61.5347V0.289581L57.5136 0.289581ZM48.3147 13.5502C48.3147 11.0906 50.4079 9.0587 52.9417 9.0587C55.4755 9.0587 57.5687 11.0906 57.5687 13.5502C57.5687 16.0098 55.4755 18.0417 52.9417 18.0417C50.4079 18.0417 48.3147 16.0633 48.3147 13.5502ZM76.352 21.3569H80.3731V5.63661H76.352V6.91989C72.5513 4.35332 67.3735 5.26232 64.7295 8.95176C62.0855 12.6412 63.0219 17.6674 66.8226 20.234C69.687 22.1589 73.4877 22.1589 76.352 20.234V21.3569ZM67.1531 13.5502C67.1531 11.0906 69.2463 9.0587 71.7801 9.0587C74.3139 9.0587 76.4071 11.0906 76.4071 13.5502C76.4071 16.0098 74.3139 18.0417 71.7801 18.0417C69.1912 18.0417 67.1531 16.0633 67.1531 13.5502M81.8603 16.2237C81.9705 19.3785 84.7797 21.6242 89.4067 21.6242C93.2074 21.6242 96.3471 20.0201 96.3471 16.4911C96.3471 14.0314 94.915 12.5877 91.61 11.9996L89.0211 11.5183C87.3686 11.1975 86.2119 10.9302 86.2119 9.9677C86.2119 8.89829 87.3135 8.47053 88.6906 8.47053C90.7287 8.47053 91.5549 9.433 91.61 10.6093H95.6861C95.4658 7.50807 92.932 5.4762 88.8558 5.4762C84.6695 5.4762 82.1357 7.72195 82.1357 10.6628C82.1357 14.2453 85.1102 14.8335 87.6991 15.2613L89.8473 15.6355C91.3897 15.9029 92.0507 16.3307 92.0507 17.1862C92.0507 17.9348 91.2795 18.7368 89.4618 18.7368C86.8178 18.7368 85.9915 17.4001 85.9364 16.2772L81.8603 16.2237Z" fill="#FF4F00"/>
</svg>
