<svg width="76" height="30" viewBox="0 0 76 30" fill="none" xmlns="http://www.w3.org/2000/svg">
<g clip-path="url(#clip0_45_85)">
<path d="M8.37781 29.2978C6.11483 29.2028 4.26336 28.5481 2.81567 27.3321C2.53939 27.0998 1.88103 26.4033 1.66016 26.1095C1.0731 25.329 0.673975 24.5694 0.407764 23.7267C-0.411406 21.1325 0.0101911 17.7282 1.61366 13.9922C2.98656 10.7936 5.10501 7.62132 8.80096 3.22768C9.3454 2.58116 10.9667 0.690399 10.9771 0.690399C10.981 0.690399 10.8927 0.85223 10.7815 1.0493C9.82047 2.75119 8.9982 4.75586 8.55025 6.49136C7.83067 9.2761 7.91747 11.6659 8.80445 13.519C9.41631 14.7956 10.4653 15.9014 11.6448 16.5127C13.7098 17.5824 16.733 17.6709 20.4251 16.7716C20.6793 16.7093 33.2753 13.174 48.4164 8.91515C63.5575 4.65589 75.9477 1.17385 75.9496 1.17671C75.9539 1.18041 40.7726 17.0973 22.5095 25.3548C19.6172 26.6622 18.8437 26.9924 17.484 27.4972C14.0082 28.7877 10.8946 29.4035 8.37781 29.2978V29.2978Z" fill="#FF4F00"/>
</g>
<defs>
<clipPath id="clip0_45_85">
<rect width="75.9496" height="28.6187" fill="white" transform="translate(0 0.690643)"/>
</clipPath>
</defs>
</svg>
