<svg width="73" height="21" viewBox="0 0 73 21" fill="none" xmlns="http://www.w3.org/2000/svg">
<path d="M0 16.0206V0.865979H6.75568C7.73996 0.865979 8.61238 1.08247 9.37295 1.51546C10.1484 1.94845 10.7599 2.54021 11.2073 3.29072C11.6696 4.04123 11.9007 4.88556 11.9007 5.82371C11.9007 6.80516 11.6696 7.68557 11.2073 8.46495C10.7599 9.2299 10.1484 9.83609 9.37295 10.2835C8.61238 10.7309 7.73996 10.9546 6.75568 10.9546H3.80287V16.0206H0ZM3.73576 7.72887H6.21881C6.5469 7.72887 6.84516 7.64949 7.1136 7.49072C7.38204 7.33196 7.59828 7.11546 7.76233 6.84124C7.92636 6.56701 8.00839 6.24948 8.00839 5.88866C8.00839 5.5134 7.92636 5.19588 7.76233 4.93608C7.59828 4.67629 7.38204 4.47422 7.1136 4.3299C6.84516 4.18557 6.5469 4.1134 6.21881 4.1134H3.73576V7.72887ZM13.3124 16.0206V4.52474H16.7126L16.8692 8.2701L16.1981 7.55567C16.3771 6.93506 16.6679 6.37938 17.0706 5.88866C17.4882 5.39794 17.9729 5.00825 18.5246 4.71959C19.0765 4.43092 19.6655 4.2866 20.2918 4.2866C20.5603 4.2866 20.8063 4.30825 21.03 4.35155C21.2687 4.39485 21.4849 4.44536 21.6787 4.50309L20.6945 8.33505C20.5305 8.23403 20.3068 8.15464 20.0234 8.09691C19.7549 8.02474 19.4716 7.98866 19.1733 7.98866C18.8453 7.98866 18.5396 8.04639 18.2562 8.16186C17.9729 8.26288 17.7343 8.41443 17.5403 8.6165C17.3465 8.81856 17.1899 9.05671 17.0706 9.33093C16.9662 9.60515 16.914 9.91547 16.914 10.2619V16.0206H13.3124ZM27.464 16.2371C26.2263 16.2371 25.1226 15.9773 24.1532 15.4577C23.1988 14.9381 22.4383 14.231 21.8715 13.3361C21.3198 12.4412 21.0438 11.4165 21.0438 10.2619C21.0438 9.10721 21.3198 8.08248 21.8715 7.18763C22.4383 6.29278 23.1988 5.58557 24.1532 5.06598C25.1226 4.54639 26.2263 4.2866 27.464 4.2866C28.7018 4.2866 29.7979 4.54639 30.7523 5.06598C31.7217 5.58557 32.4823 6.29278 33.0341 7.18763C33.5859 8.08248 33.8617 9.10721 33.8617 10.2619C33.8617 11.4165 33.5859 12.4412 33.0341 13.3361C32.4823 14.231 31.7217 14.9381 30.7523 15.4577C29.7979 15.9773 28.7018 16.2371 27.464 16.2371ZM27.464 13.2495C28.0009 13.2495 28.4781 13.1196 28.8956 12.8598C29.3133 12.6 29.6413 12.2464 29.8799 11.799C30.1186 11.3516 30.2305 10.8392 30.2155 10.2619C30.2305 9.68454 30.1186 9.17216 29.8799 8.72474C29.6413 8.26288 29.3133 7.90206 28.8956 7.64227C28.4781 7.38248 28.0009 7.25258 27.464 7.25258C26.9271 7.25258 26.4425 7.38248 26.0099 7.64227C25.5924 7.90206 25.2644 8.26288 25.0257 8.72474C24.7871 9.17216 24.6752 9.68454 24.6901 10.2619C24.6752 10.8392 24.7871 11.3516 25.0257 11.799C25.2644 12.2464 25.5924 12.6 26.0099 12.8598C26.4425 13.1196 26.9271 13.2495 27.464 13.2495ZM35.0614 16.0206V4.52474H38.4616L38.5735 6.60309L38.1037 6.62474C38.2826 6.24948 38.5063 5.91753 38.7748 5.62887C39.0581 5.3402 39.3713 5.10206 39.7143 4.91443C40.0722 4.71237 40.4375 4.56082 40.8104 4.45979C41.1981 4.35877 41.5859 4.30825 41.9737 4.30825C42.5553 4.30825 43.0847 4.39485 43.5619 4.56804C44.0391 4.74124 44.4567 5.02268 44.8146 5.41237C45.1725 5.78763 45.4559 6.3 45.6647 6.94949L45.1054 6.90619L45.2844 6.55979C45.4782 6.2134 45.7243 5.90309 46.0226 5.62887C46.3358 5.3402 46.6787 5.10206 47.0516 4.91443C47.4244 4.71237 47.8122 4.56082 48.2148 4.45979C48.6175 4.35877 49.0052 4.30825 49.3781 4.30825C50.3176 4.30825 51.1005 4.48866 51.7269 4.84948C52.3533 5.19588 52.823 5.72268 53.1362 6.4299C53.4642 7.13711 53.6283 7.99588 53.6283 9.00619V16.0206H50.0268V9.28763C50.0268 8.82577 49.9597 8.4433 49.8255 8.14021C49.6912 7.83711 49.4899 7.6134 49.2215 7.46907C48.9679 7.31031 48.6472 7.23093 48.2596 7.23093C47.9464 7.23093 47.6556 7.28145 47.3872 7.38248C47.1336 7.4835 46.9099 7.62062 46.7161 7.79382C46.5371 7.96701 46.3954 8.16908 46.291 8.4C46.1866 8.63093 46.1344 8.89072 46.1344 9.17938V16.0206H42.5329V9.26598C42.5329 8.83299 42.4658 8.46495 42.3316 8.16186C42.1974 7.85876 41.996 7.62784 41.7276 7.46907C41.4592 7.31031 41.146 7.23093 40.7881 7.23093C40.4749 7.23093 40.1841 7.28145 39.9156 7.38248C39.6621 7.4835 39.4384 7.62062 39.2445 7.79382C39.0656 7.96701 38.9239 8.16908 38.8195 8.4C38.715 8.63093 38.6629 8.88351 38.6629 9.15773V16.0206H35.0614ZM55.5054 16.0206V0H59.0846V16.0206H55.5054ZM62.3296 21L65.0364 14.8299L65.0811 16.6052L59.3544 4.52474H63.4034L65.9088 10.3052C66.043 10.5938 66.1697 10.9041 66.2891 11.2361C66.4084 11.5681 66.4979 11.8856 66.5575 12.1887L66.0654 12.4701C66.1548 12.2536 66.2518 11.9866 66.3562 11.6691C66.4755 11.3371 66.6022 10.9835 66.7365 10.6082L68.9287 4.52474H73L67.9444 16.0206L65.8864 21H62.3296Z" fill="white"/>
</svg>
