<svg width="75" height="79" viewBox="0 0 75 79" fill="none" xmlns="http://www.w3.org/2000/svg">
<g clip-path="url(#clip0_3_318)">
<path d="M74.7562 8.98008C63.1172 8.98008 52.4227 17.8367 50.1984 27.5883C49.7109 29.7484 49.1625 35.3957 49.1625 35.3957L43.1602 50.2082C43.0383 50.4551 43.0078 50.7328 43.0078 51.0105C43.0078 52.1523 43.9219 53.0781 45.0797 53.0781H49.4062V59.2191C49.4062 64.8973 53.7023 69.7422 59.2781 69.7422H63.1172V79H75V8.98008C74.6953 8.98008 74.8477 8.98008 74.7562 8.98008ZM55.957 38.8828C54.4336 38.8828 53.2148 37.6484 53.2148 36.1055C53.2148 34.5625 54.4336 33.3281 55.957 33.3281C57.4805 33.3281 58.6992 34.5625 58.6992 36.1055C58.6992 37.6484 57.4805 38.8828 55.957 38.8828ZM-0.257812 78.8148V0.308594L39.3516 9.41211V69.7422L-0.257812 78.8148ZM3.09375 4.53633V74.5562L36 66.9957V12.0969L3.09375 4.53633ZM12.2039 38.173C12.2039 30.8902 15.5859 24.9961 19.7602 24.9961C23.9344 24.9961 27.3164 30.8902 27.3164 38.173C27.3164 45.4559 23.9344 51.35 19.7602 51.35C15.5859 51.35 12.2039 45.425 12.2039 38.173Z" fill="#FF4F00"/>
</g>
<defs>
<clipPath id="clip0_3_318">
<rect width="75" height="79" fill="white"/>
</clipPath>
</defs>
</svg>
