<svg width="14" height="16" viewBox="0 0 14 16" fill="none" xmlns="http://www.w3.org/2000/svg">
<path d="M11.881 3.70813C11.7798 3.6558 11.6812 3.59843 11.5857 3.53625C11.308 3.35264 11.0533 3.1363 10.8273 2.89188C10.2616 2.24469 10.0504 1.58812 9.97256 1.12844H9.97569C9.91069 0.746875 9.93756 0.5 9.94163 0.5H7.36538V10.4619C7.36538 10.5956 7.36538 10.7278 7.35975 10.8584C7.35975 10.8747 7.35819 10.8897 7.35725 10.9072C7.35725 10.9144 7.35725 10.9219 7.35569 10.9294C7.35569 10.9312 7.35569 10.9331 7.35569 10.935C7.32853 11.2924 7.21396 11.6377 7.02204 11.9405C6.83012 12.2432 6.56674 12.4942 6.25506 12.6713C5.93023 12.856 5.56284 12.953 5.18913 12.9525C3.98881 12.9525 3.016 11.9738 3.016 10.765C3.016 9.55625 3.98881 8.5775 5.18913 8.5775C5.41634 8.57729 5.64216 8.61304 5.85819 8.68344L5.86131 6.06031C5.20549 5.9756 4.53923 6.02772 3.90456 6.21339C3.26988 6.39906 2.68058 6.71424 2.17381 7.13906C1.72977 7.52488 1.35646 7.98522 1.07069 8.49938C0.961939 8.68688 0.551627 9.44031 0.501939 10.6631C0.470689 11.3572 0.679127 12.0763 0.778502 12.3734V12.3797C0.841002 12.5547 1.08319 13.1519 1.47788 13.6553C1.79614 14.0591 2.17215 14.4139 2.59381 14.7081V14.7019L2.60006 14.7081C3.84725 15.5556 5.23006 15.5 5.23006 15.5C5.46944 15.4903 6.27131 15.5 7.18194 15.0684C8.19194 14.59 8.76694 13.8772 8.76694 13.8772C9.13428 13.4513 9.42637 12.9659 9.63069 12.4419C9.86381 11.8291 9.94163 11.0941 9.94163 10.8003V5.51531C9.97288 5.53406 10.3891 5.80937 10.3891 5.80937C10.3891 5.80937 10.9888 6.19375 11.9244 6.44406C12.5957 6.62219 13.5001 6.65969 13.5001 6.65969V4.10219C13.1832 4.13656 12.5398 4.03656 11.881 3.70813Z" fill="white"/>
</svg>
