<svg width="99" height="22" viewBox="0 0 99 22" fill="none" xmlns="http://www.w3.org/2000/svg">
<g clip-path="url(#clip0_45_59)">
<path d="M9.7416 21.472L12.8304 7.17198L12.9492 7.21598L16.1172 21.472H20.8692L25.938 0.483978H21.7404L18.6912 14.96H18.612L15.444 0.483978H10.8108L7.5636 14.96H7.4844L4.5144 0.483978H0L4.95 21.472H9.7416Z" fill="#FF4F00"/>
<path d="M31.0861 12.012L33.7789 12.76C35.0065 13.112 35.8381 13.42 36.3133 13.728C37.1449 14.256 37.5805 14.96 37.5805 15.884C37.5805 16.676 37.1845 17.292 36.4321 17.732C35.7589 18.128 34.8877 18.348 33.8977 18.348C32.5117 18.348 31.4425 17.952 30.7297 17.204C30.0961 16.5 29.7397 15.62 29.7397 14.476H25.7797C25.7797 16.764 26.4925 18.568 27.8785 19.932C29.2645 21.252 31.2445 21.956 33.7789 21.956C36.4717 21.956 38.4913 21.252 39.8377 19.8C40.9861 18.612 41.5801 17.072 41.5801 15.18C41.5801 13.244 40.9069 11.748 39.5209 10.692C38.7685 10.12 37.5409 9.59198 35.9173 9.10798C34.7293 8.75598 33.8581 8.49198 33.2245 8.31598C31.3633 7.74398 30.4525 6.86398 30.4525 5.71998C30.4525 5.01598 30.7297 4.48798 31.2841 4.13598C31.7989 3.78398 32.4721 3.56398 33.3037 3.56398C34.4917 3.56398 35.4025 3.82798 35.9965 4.39998C36.6301 4.97198 36.9469 5.71998 36.9469 6.73198H40.9465C40.9465 4.79598 40.3921 3.25598 39.2833 2.11198C38.0161 0.747976 36.0757 0.0439758 33.4621 0.0439758C31.4029 0.0439758 29.7397 0.571976 28.4329 1.67198C27.0865 2.81598 26.4133 4.31198 26.4133 6.15998C26.4133 9.10798 27.9973 11.088 31.0861 12.012Z" fill="#FF4F00"/>
<path d="M49.0248 6.73197C48.7872 6.99597 48.1932 7.47997 47.2824 8.18397C45.936 9.23997 45.0252 10.076 44.55 10.736C43.7976 11.748 43.4016 12.98 43.4016 14.432H53.3016V11.528H47.9952C48.2724 11.132 48.6684 10.736 49.2228 10.296C49.6584 9.94397 50.1336 9.59197 50.6088 9.23997C51.5196 8.49197 52.1532 7.83197 52.5096 7.21597C52.9848 6.42397 53.2224 5.49997 53.2224 4.35596C53.2224 3.78396 53.1036 3.21196 52.866 2.68396C52.47 1.84796 51.876 1.23196 51.1236 0.791964C50.4108 0.395964 49.6188 0.175964 48.708 0.175964C47.2824 0.175964 46.134 0.571964 45.3024 1.31996C44.3916 2.15596 43.9164 3.34397 43.9164 4.88397H46.8468C46.8468 4.31197 46.9656 3.87196 47.2428 3.51996C47.52 3.16796 47.8764 2.99196 48.3912 2.99196C48.8664 2.99196 49.2624 3.16796 49.5792 3.47596C49.896 3.78396 50.0544 4.22397 50.0544 4.75197C50.094 5.36797 49.7376 6.02797 49.0248 6.73197Z" fill="#FF4F00"/>
<path d="M66.33 6.24798L67.2012 2.33198H67.2408L68.112 6.24798H69.4188L70.8048 0.483978H69.6564L68.8248 4.44398H68.7852L67.914 0.483978H66.6468L65.736 4.44398L64.9044 0.483978H63.6768L65.0232 6.24798H66.33Z" fill="#FF4F00"/>
<path d="M71.8344 6.24798L72.2304 4.97198H74.1708L74.5668 6.24798H75.7548L73.8144 0.483978H72.666L70.686 6.24798H71.8344ZM73.1808 1.89198L73.854 4.00398H72.5076L73.1808 1.89198Z" fill="#FF4F00"/>
<path d="M77.5764 4.17998H78.6456L79.596 6.24798H80.8236L79.7544 3.91598C80.4276 3.60798 80.7444 3.07998 80.7444 2.28798C80.7444 1.80398 80.6256 1.40798 80.3484 1.09998C80.0316 0.703978 79.5168 0.483978 78.8436 0.483978H76.428V6.24798H77.5764V4.17998ZM77.5764 1.53998H78.6456C79.2792 1.53998 79.596 1.80398 79.596 2.37598C79.596 2.90398 79.2792 3.16798 78.6456 3.16798H77.5764V1.53998Z" fill="#FF4F00"/>
<path d="M84.2688 5.23597C84.0708 5.36797 83.8332 5.41197 83.556 5.41197C83.16 5.41197 82.8828 5.32397 82.6848 5.10397C82.4868 4.92797 82.4076 4.66397 82.4076 4.35597H81.2988C81.2988 4.97197 81.4968 5.49997 81.8928 5.85197C82.2888 6.20397 82.8036 6.42397 83.5164 6.42397C84.2688 6.42397 84.8232 6.24797 85.1796 5.85197C85.4964 5.54397 85.6548 5.10397 85.6548 4.57597C85.6548 4.04797 85.4568 3.65197 85.1004 3.34397C84.9024 3.16797 84.546 3.03597 84.1104 2.90397C83.7936 2.81597 83.556 2.72797 83.358 2.68397C82.8432 2.50797 82.6056 2.28797 82.6056 1.97997C82.6056 1.80397 82.6848 1.62797 82.8432 1.53997C83.0016 1.45197 83.16 1.36397 83.3976 1.36397C83.7144 1.36397 83.952 1.45197 84.15 1.58397C84.3084 1.75997 84.4272 1.93597 84.4272 2.24397H85.536C85.536 1.71597 85.3776 1.27597 85.0608 0.967966C84.7044 0.571966 84.1896 0.395966 83.4768 0.395966C82.9224 0.395966 82.4472 0.527966 82.0908 0.835966C81.7344 1.14397 81.5364 1.53997 81.5364 2.06797C81.5364 2.90397 81.972 3.43197 82.8036 3.69597L83.556 3.91597C83.8728 4.00397 84.1104 4.09197 84.2688 4.17997C84.5064 4.31197 84.6252 4.53197 84.6252 4.75197C84.5856 4.92797 84.4668 5.10397 84.2688 5.23597Z" fill="#FF4F00"/>
<path d="M87.5556 4.97198H89.496L89.892 6.24798H91.08L89.1396 0.483978H87.9912L86.0112 6.24798H87.1596L87.5556 4.97198ZM88.506 1.89198L89.1792 4.00398H87.8328L88.506 1.89198Z" fill="#FF4F00"/>
<path d="M93.6144 6.24798L94.4856 2.33198H94.5252L95.3964 6.24798H96.7032L98.0892 0.483978H96.9408L96.1092 4.44398H96.0696L95.1984 0.483978H93.9312L93.0204 4.44398L92.1888 0.483978H90.9612L92.3076 6.24798H93.6144Z" fill="#FF4F00"/>
<path d="M67.6764 10.912C67.4784 10.736 67.122 10.604 66.6864 10.472C66.3696 10.384 66.132 10.296 65.934 10.252C65.4192 10.076 65.1816 9.85599 65.1816 9.54799C65.1816 9.37199 65.2608 9.19599 65.4192 9.10799C65.5776 9.01999 65.736 8.93199 65.9736 8.93199C66.2904 8.93199 66.528 9.01999 66.726 9.15199C66.8844 9.32799 67.0032 9.50399 67.0032 9.81199H68.112C68.112 9.28399 67.9536 8.84399 67.6368 8.53599C67.2804 8.13999 66.7656 7.96399 66.0528 7.96399C65.4984 7.96399 65.0232 8.09599 64.6668 8.40399C64.3104 8.71199 64.1124 9.10799 64.1124 9.63599C64.1124 10.472 64.548 11 65.3796 11.264L66.132 11.484C66.4488 11.572 66.6864 11.66 66.8448 11.748C67.0824 11.88 67.2012 12.1 67.2012 12.32C67.2012 12.54 67.0824 12.716 66.8844 12.848C66.6864 12.98 66.4488 13.024 66.1716 13.024C65.7756 13.024 65.4984 12.936 65.3004 12.716C65.1024 12.54 65.0232 12.276 65.0232 11.968H63.9144C63.9144 12.584 64.1124 13.112 64.5084 13.464C64.9044 13.816 65.4192 14.036 66.132 14.036C66.8844 14.036 67.4388 13.86 67.7952 13.464C68.112 13.156 68.2704 12.716 68.2704 12.188C68.2308 11.616 68.0328 11.22 67.6764 10.912Z" fill="#FF4F00"/>
<path d="M70.2504 9.98798L72.4284 13.86H73.5372V8.09598H72.5076V11.968L70.3296 8.09598H69.1812V13.86H70.2504V10.032V9.98798Z" fill="#FF4F00"/>
<path d="M78.2496 9.15198V8.09598H74.7648V13.86H78.2892V12.804H75.9132V11.44H78.0912V10.384H75.9132V9.15198H78.2496Z" fill="#FF4F00"/>
<path d="M80.0316 13.86L80.4276 12.584H82.368L82.764 13.86H83.952L82.0116 8.09598H80.8632L78.8832 13.86H80.0316ZM81.378 9.54798L82.0512 11.66H80.7048L81.378 9.54798Z" fill="#FF4F00"/>
<path d="M84.6252 8.09598V13.86H85.734V11.22L87.9516 13.86H89.3772L86.8032 10.824L89.1792 8.09598H87.7536L85.734 10.56V8.09598H84.6252Z" fill="#FF4F00"/>
<path d="M91.1988 11.44H93.3768V10.384H91.1988V9.15198H93.4956V8.09598H90.0504V13.86H93.5748V12.804H91.1988V11.44Z" fill="#FF4F00"/>
<path d="M94.6044 8.09598V13.86H95.7528V11.792H96.822L97.7724 13.86H99L97.9308 11.528C98.604 11.22 98.9208 10.692 98.9208 9.89998C98.9208 9.41598 98.802 9.01998 98.5248 8.71198C98.208 8.31598 97.6932 8.09598 97.02 8.09598H94.6044V8.09598ZM97.7328 9.98798C97.7328 10.516 97.416 10.78 96.7824 10.78H95.7132V9.15198H96.7824C97.416 9.15198 97.7328 9.45998 97.7328 9.98798Z" fill="#FF4F00"/>
<path d="M67.6764 18.524C67.4784 18.348 67.122 18.216 66.6864 18.084C66.3696 17.996 66.132 17.908 65.934 17.864C65.4192 17.688 65.1816 17.468 65.1816 17.16C65.1816 16.984 65.2608 16.808 65.4192 16.72C65.5776 16.632 65.736 16.544 65.9736 16.544C66.2904 16.544 66.528 16.632 66.726 16.764C66.8844 16.94 67.0032 17.116 67.0032 17.424H68.112C68.112 16.896 67.9536 16.456 67.6368 16.148C67.2804 15.752 66.7656 15.576 66.0528 15.576C65.4984 15.576 65.0232 15.708 64.6668 16.016C64.3104 16.324 64.1124 16.72 64.1124 17.248C64.1124 18.084 64.548 18.612 65.3796 18.876L66.132 19.096C66.4488 19.184 66.6864 19.272 66.8448 19.36C67.0824 19.492 67.2012 19.712 67.2012 19.932C67.2012 20.152 67.0824 20.328 66.8844 20.46C66.6864 20.592 66.4488 20.636 66.1716 20.636C65.7756 20.636 65.4984 20.548 65.3004 20.328C65.1024 20.152 65.0232 19.888 65.0232 19.58H63.9144C63.9144 20.196 64.1124 20.724 64.5084 21.076C64.9044 21.428 65.4192 21.648 66.132 21.648C66.8844 21.648 67.4388 21.472 67.7952 21.076C68.112 20.768 68.2704 20.328 68.2704 19.8C68.2308 19.228 68.0328 18.832 67.6764 18.524Z" fill="#FF4F00"/>
<path d="M68.7061 16.808H70.2505V21.472H71.3989V16.808H72.9433V15.708H68.7061V16.808Z" fill="#FF4F00"/>
<path d="M75.8736 15.576C75.0816 15.576 74.4876 15.84 74.0124 16.412C73.5372 16.984 73.3392 17.688 73.3392 18.568C73.3392 19.492 73.5768 20.196 74.052 20.768C74.5272 21.34 75.1212 21.604 75.8736 21.604C76.626 21.604 77.22 21.34 77.6952 20.768C78.1704 20.196 78.408 19.492 78.408 18.568C78.408 17.688 78.1704 16.94 77.6952 16.412C77.2596 15.884 76.6656 15.576 75.8736 15.576ZM76.9032 20.064C76.6656 20.372 76.3092 20.548 75.9132 20.548C75.4776 20.548 75.1608 20.372 74.9232 20.064C74.646 19.712 74.5272 19.228 74.5272 18.612C74.5272 17.996 74.646 17.556 74.9232 17.204C75.1608 16.852 75.5172 16.676 75.9528 16.676C76.3884 16.676 76.7448 16.852 76.9824 17.204C77.22 17.556 77.3388 18.04 77.3388 18.612C77.2992 19.228 77.1408 19.756 76.9032 20.064Z" fill="#FF4F00"/>
<path d="M83.6748 17.556C83.6748 17.072 83.556 16.676 83.2788 16.368C82.962 15.972 82.4472 15.752 81.774 15.752H79.3584V21.516H80.5068V19.448H81.576L82.5264 21.516H83.754L82.6848 19.184C83.358 18.876 83.6748 18.348 83.6748 17.556ZM81.576 18.436H80.5068V16.808H81.576C82.2096 16.808 82.5264 17.072 82.5264 17.644C82.5264 18.128 82.2096 18.436 81.576 18.436Z" fill="#FF4F00"/>
<path d="M85.734 19.052H87.9516V17.996H85.734V16.808H88.0704V15.708H84.6252V21.472H88.1496V20.416H85.734V19.052Z" fill="#FF4F00"/>
</g>
<defs>
<clipPath id="clip0_45_59">
<rect width="99" height="22" fill="white"/>
</clipPath>
</defs>
</svg>
