<svg width="104" height="20" viewBox="0 0 104 20" fill="none" xmlns="http://www.w3.org/2000/svg">
<g clip-path="url(#clip0_45_94)">
<path d="M43.1745 5.58961C42.3948 5.16097 41.2357 4.95246 39.6307 4.95188C37.4345 4.95269 35.3959 5.40808 34.6243 5.69554C34.4502 5.7514 34.2638 5.90173 34.2607 6.159L34.2612 6.21573L34.4773 7.3075L34.4827 7.32781C34.5503 7.55011 34.7356 7.6498 34.9042 7.6498H34.9051C34.9593 7.64748 35.0016 7.63703 35.0409 7.62702L35.4064 7.5417C36.363 7.30227 37.809 6.94067 39.4236 6.94067C40.403 6.94067 41.0615 7.026 41.5029 7.21231C42.219 7.48336 42.2235 7.9461 42.2307 8.71211V9.85785C42.1487 9.8564 42.0102 9.85495 41.797 9.85495C41.0062 9.85495 39.4512 9.89166 37.9219 10.1367C35.5883 10.495 33.6574 11.0534 33.6696 14.2674C33.6704 18.3475 37.4563 18.3551 39.2756 18.3589H39.2758C40.5108 18.3587 41.6503 18.1764 42.3946 18.0226C44.093 17.6283 44.5265 17.0893 44.5038 15.4023V8.61779C44.5062 7.58305 44.5093 6.29525 43.1744 5.58961M42.242 16.0702C41.3381 16.3634 40.3491 16.5119 39.3016 16.5119V16.6072L39.3003 16.5119C37.6266 16.4991 35.9921 16.3077 35.9901 14.1737C36.0008 12.4764 36.9068 12.2744 38.0535 12.0184L38.1331 12.0007C39.1533 11.7828 41.7141 11.7419 42.2423 11.7358L42.2421 16.0702H42.242ZM63.4287 8.61779V15.4023C63.4515 17.0893 63.0177 17.6283 61.3195 18.0226C60.5752 18.1764 59.4357 18.3586 58.2006 18.3589H58.2004C56.3811 18.3551 52.5953 18.3475 52.5943 14.2674C52.5823 11.0534 54.5132 10.495 56.8468 10.1367C58.3761 9.89166 59.9311 9.85495 60.7217 9.85495C60.9351 9.85495 61.0735 9.8564 61.1556 9.85785V8.71211C61.1484 7.9461 61.1439 7.48336 60.4278 7.21231C59.9864 7.026 59.3279 6.94067 58.3485 6.94067C56.7337 6.94067 55.2879 7.30227 54.3313 7.5417L53.9658 7.62702C53.9265 7.63704 53.8842 7.64748 53.8298 7.6498H53.8291C53.6604 7.6498 53.4752 7.55011 53.4075 7.32781L53.4022 7.3075L53.186 6.21573L53.1856 6.159C53.1886 5.90173 53.375 5.7514 53.5492 5.69554C54.3206 5.40808 56.3594 4.95275 58.5555 4.95188C60.1605 4.95246 61.3197 5.16097 62.0993 5.58961C63.4341 6.29525 63.4312 7.58305 63.4287 8.61779M61.1672 11.7358C60.6389 11.7419 58.0781 11.7828 57.0579 12.0007L56.9785 12.0184C55.8317 12.2744 54.9258 12.4764 54.915 14.1737C54.917 16.3077 56.5516 16.4991 58.2253 16.5119L58.2266 16.6072V16.5119C59.2741 16.5119 60.263 16.3634 61.167 16.0702L61.1672 11.7358H61.1672ZM97.7099 4.95188C92.4377 4.95898 91.9906 8.42175 91.9856 11.6674C91.9906 14.9012 92.4377 18.3518 97.7099 18.3589H97.7102C102.978 18.3518 103.428 14.9105 103.435 11.667C103.429 8.27302 102.982 4.95899 97.71 4.95188M97.7101 16.4646C94.5123 16.4505 94.3516 14.8097 94.3299 11.668C94.3516 8.50911 94.512 6.86 97.7098 6.84607C100.908 6.86 101.069 8.50911 101.09 11.6666C101.069 14.8097 100.908 16.4505 97.7101 16.4646M88.2482 17.8814L88.1104 17.9162C87.3732 18.1031 86.363 18.3589 84.5926 18.3589H84.5925H84.5887C79.7093 18.3518 78.7517 15.8914 78.7463 11.6438C78.7522 6.77192 80.2972 4.95841 84.4466 4.95188C85.9104 4.95188 86.919 5.14109 87.6426 5.3158L87.6383 1.39175C87.6322 1.21965 87.7101 0.994306 88.1176 0.916675L89.4136 0.586273H89.4843C89.782 0.593679 89.8874 0.858924 89.888 1.08369V15.8279C89.908 16.7589 89.7984 17.5577 88.2482 17.8814M87.6394 7.20418C87.2067 7.09419 85.9988 6.82241 84.6387 6.82241C82.1404 6.84534 81.0927 7.5237 81.0665 11.6679C81.0959 16.2183 82.4514 16.4643 84.661 16.4882L84.6623 16.5836V16.4882C86.0376 16.4882 87.2175 16.2017 87.6383 16.0857L87.6394 7.20418V7.20418ZM75.9926 18.0516H74.8335C74.523 18.0511 74.2888 17.8167 74.2881 17.5064V8.75941C74.2671 7.27978 73.8248 6.86827 72.2309 6.84607C70.4276 6.84607 68.6023 7.29836 68.0003 7.46232V17.5061C67.9997 17.8219 67.7804 18.0512 67.4788 18.0516H66.2961C65.9855 18.0511 65.7511 17.8167 65.7506 17.5064V7.69565C65.7333 6.78759 65.8187 6.15987 67.1109 5.74182C68.348 5.31478 70.7157 4.95275 72.2795 4.95188C75.2603 4.95565 76.5335 6.03058 76.5375 8.54654V17.5061C76.5371 17.8167 76.3027 18.0512 75.9926 18.0516ZM49.7389 18.288H49.74C50.4061 18.2749 50.8988 18.1433 51.0917 17.9268C51.1602 17.85 51.1919 17.7614 51.1833 17.6739C51.1788 17.6019 51.1788 17.6019 50.9961 16.7462L50.9917 16.7258C50.9521 16.502 50.7924 16.4003 50.6607 16.4003C50.6484 16.4003 50.6363 16.401 50.6429 16.4019C50.6429 16.4019 50.4755 16.3938 50.3103 16.3938H50.3087C49.8339 16.3787 49.4404 16.3096 49.4322 15.615V1.08384C49.4318 0.841511 49.2856 0.592948 49.005 0.586273L48.9223 0.58697L47.6241 0.919548C47.4029 0.942185 47.1726 1.09933 47.1825 1.39143V15.6624C47.185 17.3525 48.0924 18.2849 49.7379 18.2879H49.739L49.7389 18.288ZM31.4037 18.0516H22.1026C21.7921 18.0511 21.5577 17.8167 21.5571 17.5064V16.3714C21.5507 16.0933 21.6398 15.9693 21.8113 15.7571L29.2145 7.15354H21.9608C21.6502 7.15285 21.4157 6.91847 21.4153 6.60839V5.80451C21.4157 5.49428 21.6502 5.25993 21.9607 5.25935H31.3563C31.6667 5.25993 31.9011 5.49428 31.9017 5.80436V6.96288C31.9062 7.17226 31.8336 7.34987 31.6664 7.53618L24.2445 16.1571H31.4035C31.714 16.158 31.9484 16.3922 31.949 16.7024V17.5061C31.9484 17.8167 31.714 18.0512 31.4037 18.0516Z" fill="#FF4F00"/>
<path d="M2.9203 3.82571C1.31279 3.82571 0.486241 8.21323 0.572322 12.3324C0.570017 12.3319 0.567368 12.333 0.565063 12.3324C0.650999 15.948 1.45084 19.4135 3.03643 19.4135C9.12114 19.4135 16.0537 13.6776 16.0537 11.6214C16.0537 11.107 15.5296 10.1173 14.8271 9.33605C14.8262 9.33658 14.8244 9.33551 14.8235 9.33605C14.7757 9.28062 14.7251 9.22533 14.6747 9.16918C12.5072 6.75174 8.01036 3.82571 2.9203 3.82571Z" fill="#FF4F00"/>
<path d="M0.571166 12.3323C5.14286 13.4055 10.0236 12.1973 14.7521 9.38029C14.7759 9.36607 14.7997 9.35185 14.8235 9.33748C14.7757 9.28205 14.7268 9.22619 14.6765 9.17003C12.5089 6.7526 8.00936 3.82599 2.91929 3.82599C1.31178 3.82599 0.485085 8.21307 0.571166 12.3323M14.8235 9.33748C14.8245 9.33702 14.8254 9.33644 14.8263 9.33589L14.8235 9.33748Z" fill="#FF4F00"/>
<path d="M0.566406 12.3313C0.652342 15.9469 1.45247 19.4137 3.03806 19.4137C9.12277 19.4137 16.0548 13.6793 16.0548 11.6232C16.0548 11.1088 15.5287 10.1171 14.8263 9.33591C10.0733 12.1856 5.16365 13.412 0.566406 12.3313Z" fill="#FF4F00"/>
</g>
<defs>
<clipPath id="clip0_45_94">
<rect width="104" height="20" fill="white"/>
</clipPath>
</defs>
</svg>
